<!-- Generated by IcoMoon.io -->
<svg version="1.1" xmlns="http://www.w3.org/2000/svg" width="30" height="32" viewBox="0 0 30 32">
<title>close</title>
<path d="M26.080 29.76l-25.28-25.28c-0.64-0.64-0.64-1.92 0-2.56l0.48-0.48c0.64-0.64 1.92-0.64 2.56 0l25.28 25.28c0.64 0.64 0.64 1.92 0 2.56l-0.48 0.48c-0.64 0.8-1.76 0.8-2.56 0z"></path>
<path d="M29.12 4.64l-25.28 25.28c-0.64 0.64-1.92 0.64-2.56 0l-0.48-0.48c-0.64-0.64-0.64-1.92 0-2.56l25.28-25.28c0.64-0.64 1.92-0.64 2.56 0l0.48 0.48c0.64 0.64 0.64 1.76 0 2.56z"></path>
</svg>
